<svg width="549" height="549" viewBox="0 0 549 549" fill="none" xmlns="http://www.w3.org/2000/svg">
<path d="M274.304 0C123.044 0 0 123.044 0 274.304C0 425.564 123.044 548.608 274.304 548.608C425.564 548.608 548.608 425.564 548.608 274.304C548.608 123.044 425.564 0 274.304 0ZM274.304 45.7173C400.83 45.7173 502.89 147.778 502.89 274.304C502.89 400.83 400.83 502.89 274.304 502.89C147.778 502.89 45.7173 400.83 45.7173 274.304C45.7173 147.778 147.778 45.7173 274.304 45.7173ZM274.304 205.728C236.444 205.728 205.728 236.444 205.728 274.304C205.728 312.164 236.444 342.88 274.304 342.88C312.164 342.88 342.88 312.164 342.88 274.304C342.88 236.444 312.164 205.728 274.304 205.728Z" fill="#625476"/>
</svg>
